<svg xmlns="http://www.w3.org/2000/svg" width="1200" height="800" viewBox="0 0 1200 800" fill="none">
  <defs>
    <linearGradient id="g0" x1="80" y1="40" x2="1100" y2="760" gradientUnits="userSpaceOnUse">
      <stop stop-color="#0A2A66"/>
      <stop offset="0.45" stop-color="#0B4AA6"/>
      <stop offset="1" stop-color="#19B7D2"/>
    </linearGradient>
    <radialGradient id="g1" cx="0" cy="0" r="1" gradientUnits="userSpaceOnUse" gradientTransform="translate(360 260) rotate(35) scale(760 520)">
      <stop stop-color="#FFFFFF" stop-opacity="0.35"/>
      <stop offset="1" stop-color="#FFFFFF" stop-opacity="0"/>
    </radialGradient>
    <filter id="blur" x="-20" y="-20" width="1240" height="840" filterUnits="userSpaceOnUse">
      <feGaussianBlur stdDeviation="18"/>
    </filter>
  </defs>

  <rect width="1200" height="800" rx="56" fill="url(#g0)"/>
  <path d="M0 520C180 470 320 610 520 560C720 510 860 600 1200 520V800H0V520Z" fill="#072050" fill-opacity="0.55"/>
  <path d="M0 610C220 560 360 700 560 640C760 580 920 690 1200 610V800H0V610Z" fill="#06173A" fill-opacity="0.35"/>

  <g filter="url(#blur)">
    <circle cx="320" cy="250" r="220" fill="url(#g1)"/>
  </g>

  <g opacity="0.9">
    <path d="M610 392C610 378 621 366 636 366H688C703 366 714 378 714 392V424H610V392Z" fill="#FFFFFF" fill-opacity="0.85"/>
    <path d="M560 452C640 432 720 432 800 452L844 464C858 468 866 484 860 498C846 530 820 556 784 574C716 608 644 608 576 574C540 556 514 530 500 498C494 484 502 468 516 464L560 452Z" fill="#FFFFFF" fill-opacity="0.85"/>
    <path d="M536 522C620 544 724 544 808 522" stroke="#FFFFFF" stroke-opacity="0.7" stroke-width="10" stroke-linecap="round"/>
  </g>

  <g opacity="0.6">
    <circle cx="940" cy="170" r="3" fill="#FFFFFF"/>
    <circle cx="980" cy="150" r="2" fill="#FFFFFF"/>
    <circle cx="1010" cy="190" r="2" fill="#FFFFFF"/>
    <circle cx="1046" cy="168" r="3" fill="#FFFFFF"/>
    <circle cx="1090" cy="186" r="2" fill="#FFFFFF"/>
  </g>
</svg>

